<?xml version="1.0" standalone="no"?><!DOCTYPE svg PUBLIC "-//W3C//DTD SVG 1.1//EN" "http://www.w3.org/Graphics/SVG/1.1/DTD/svg11.dtd"><svg t="1756612938246" class="icon" viewBox="0 0 1024 1024" version="1.1" xmlns="http://www.w3.org/2000/svg" p-id="38517" xmlns:xlink="http://www.w3.org/1999/xlink" width="32" height="32"><path d="M352.256 832c-36.352 0-65.536 29.696-64 66.56 1.024 32.768 28.672 60.416 61.44 61.44 36.352 1.536 66.56-27.648 66.56-64 0-35.328-28.16-64-64-64zM800.768 832c-36.352 0-65.536 29.696-64 66.56 1.024 32.768 28.672 60.416 61.44 61.44 36.352 1.536 66.56-27.648 66.56-64 0-35.328-29.184-64-64-64zM862.72 800.256H344.064c-46.08 0-86.528-36.352-92.16-82.944L197.632 334.848l-30.72-178.688c-2.048-15.872-16.384-28.16-29.696-28.16H97.28c-17.408 0-32.768-13.312-33.28-31.232-0.512-17.92 13.824-32.768 31.744-32.768h40.96c46.592 0 87.552 36.352 93.184 82.944l30.72 177.664 54.784 384c1.536 14.848 15.36 27.136 28.672 27.136h519.68c17.92 0 32.256 14.848 31.744 32.768 0 17.92-15.36 31.744-32.768 31.744z" p-id="38518"></path><path d="M384.512 672.256c-16.896 0-30.72-12.8-31.744-29.696-1.536-17.408 11.776-33.28 29.696-34.304l434.176-31.744c15.872 0 29.184-12.8 31.232-26.624l50.176-288.256c1.024-10.752-1.536-22.528-8.192-29.696-4.096-4.608-9.216-7.168-15.36-7.168H321.024c-16.384 0-30.72-11.776-32.768-27.648-2.56-19.456 12.8-36.864 31.744-36.864h553.984c24.576 0 47.104 10.24 63.488 28.672 17.408 19.456 26.112 46.592 24.064 75.264-0.512 4.608-1.024 8.704-1.536 13.312l-49.152 282.112c-5.632 45.056-46.08 81.408-92.16 81.408l-431.616 31.744c-1.024-1.024-2.048-0.512-2.56-0.512z" p-id="38519"></path></svg>