<?xml version="1.0" standalone="no"?><!DOCTYPE svg PUBLIC "-//W3C//DTD SVG 1.1//EN" "http://www.w3.org/Graphics/SVG/1.1/DTD/svg11.dtd"><svg t="1756612870732" class="icon" viewBox="0 0 1024 1024" version="1.1" xmlns="http://www.w3.org/2000/svg" p-id="38027" xmlns:xlink="http://www.w3.org/1999/xlink" width="32" height="32"><path d="M835.072 588.8c6.656-15.872 0-35.328-15.872-41.472-15.872-6.656-35.328 0-41.472 15.872-15.872 28.672-79.872 45.056-169.472 45.056-19.456 0-32.256 12.8-32.256 32.256s12.8 31.744 32.256 31.744h9.728c82.944 0 185.344-16.384 217.088-83.456z" p-id="38028"></path><path d="M905.728 438.272l-41.472-15.872c-12.8-182.272-166.4-329.728-352.256-329.728-188.928 0-342.528 150.528-352.256 335.872l-19.456 12.8c-6.144 6.656-12.8 15.872-12.8 25.6v134.656c0 19.456 12.8 32.256 32.256 32.256s32.256-12.8 32.256-32.256V486.4l19.456-12.8c6.656-6.656 12.8-15.872 12.8-28.672 0-160.256 128-288.256 288.256-288.256s288.256 128 288.256 288.256c0 12.8 9.728 25.6 22.528 28.672l41.472 15.872v109.056c0 19.456 12.8 32.256 32.256 32.256s32.256-12.8 32.256-32.256V463.872c-1.024-9.216-10.752-22.016-23.552-25.6z" p-id="38029"></path><path d="M512 649.728c-99.328 0-182.272-79.872-182.272-182.272 0-99.328 79.872-182.272 182.272-182.272 99.328 0 182.272 79.872 182.272 182.272 0 12.8 0 25.6-3.072 38.4-3.072 15.872 6.656 35.328 25.6 38.4 15.872 3.072 35.328-6.656 38.4-25.6 3.072-15.872 6.656-35.328 6.656-51.2 0-134.656-108.544-246.272-246.272-246.272S268.8 329.728 268.8 467.456c0 86.528 44.544 160.256 112.128 204.8-112.128 38.4-195.072 128-217.6 246.272-3.072 15.872 6.144 35.328 25.6 38.4h6.656c15.872 0 28.672-9.728 32.256-25.6 25.6-131.072 140.8-217.6 288.256-217.6 19.456 0 32.256-12.8 32.256-32.256-4.096-18.944-16.896-31.744-36.352-31.744z m243.2 60.928c-12.8-9.728-35.328-9.728-45.056 6.656-9.728 12.8-9.728 35.328 6.656 45.056 44.544 35.328 99.328 89.6 115.2 173.056 3.072 15.872 15.872 25.6 32.256 25.6h6.656c15.872-3.072 28.672-19.456 25.6-38.4-19.456-103.424-87.04-170.496-141.312-211.968z" p-id="38030"></path></svg>