<?xml version="1.0" standalone="no"?><!DOCTYPE svg PUBLIC "-//W3C//DTD SVG 1.1//EN" "http://www.w3.org/Graphics/SVG/1.1/DTD/svg11.dtd"><svg t="1759215485866" class="icon" viewBox="0 0 1024 1024" version="1.1" xmlns="http://www.w3.org/2000/svg" p-id="8724" xmlns:xlink="http://www.w3.org/1999/xlink" width="32" height="32"><path d="M538.112 139.776l277.504 123.392c23.04 10.24 37.888 33.28 37.888 58.368v381.44c0 25.088-14.848 48.128-37.888 58.368l-277.504 123.392c-16.384 7.168-35.328 7.168-52.224 0l-277.504-123.392c-23.04-10.24-37.888-33.28-37.888-58.368V321.024c0-25.088 14.848-48.128 37.888-58.368l277.504-123.392c16.896-7.168 35.328-7.168 52.224 0.512z m-303.616 261.12v293.888c0 5.12 3.072 9.728 7.68 11.776l225.28 99.84c8.192 3.584 17.92-2.56 17.92-11.776V497.152c0-5.12-3.072-9.728-7.68-11.776L252.416 389.12c-8.192-3.584-17.92 2.56-17.92 11.776zM789.504 384l-232.448 99.328c-4.608 2.048-7.68 6.656-7.68 11.776v294.912c0 9.216 9.728 15.36 17.92 11.776l214.528-95.232c4.608-2.048 7.68-6.656 7.68-11.776V384zM506.88 200.192L271.872 304.64c-10.24 4.608-10.24 18.944 0 23.552L509.44 430.08c3.072 1.536 6.656 1.536 10.24 0l234.496-100.352c10.24-4.608 10.24-18.944 0-23.552L517.12 200.192c-3.072-1.536-7.168-1.536-10.24 0z" p-id="8725"></path></svg>