<?xml version="1.0" standalone="no"?><!DOCTYPE svg PUBLIC "-//W3C//DTD SVG 1.1//EN" "http://www.w3.org/Graphics/SVG/1.1/DTD/svg11.dtd"><svg t="1749742615215" class="icon" viewBox="0 0 1024 1024" version="1.1" xmlns="http://www.w3.org/2000/svg" p-id="26709" xmlns:xlink="http://www.w3.org/1999/xlink" width="32" height="32"><path d="M608.256 768c-17.92 0-32.256-14.336-32.256-32.256V384c0-17.92 14.336-32.256 32.256-32.256s32.256 14.336 32.256 32.256v351.744c-0.512 17.92-14.848 32.256-32.256 32.256zM416.256 768c-17.92 0-32.256-14.336-32.256-32.256V384c0-17.92 14.336-32.256 32.256-32.256s32.256 14.336 32.256 32.256v351.744c-0.512 17.92-14.848 32.256-32.256 32.256z" p-id="26710"></path><path d="M736.256 960H288.256c-52.736 0-96.256-43.008-96.256-96.256V383.488c0-17.92 14.336-32.256 32.256-32.256 17.408 0 32.256 14.336 32.256 32.256v480.256c0 17.92 14.336 32.256 32.256 32.256h448c17.92 0 32.256-14.336 32.256-32.256V385.024c0-17.408 14.336-32.256 32.256-32.256s32.256 14.336 32.256 32.256v479.232c-1.536 52.736-44.544 95.744-97.28 95.744zM597.504 181.248H426.496c-17.92 0-31.744-14.336-31.744-31.744 0-17.92 14.336-31.744 31.744-31.744h170.496c17.92 0 31.744 14.336 31.744 31.744 0.512 17.408-13.824 31.744-31.232 31.744zM862.208 288.256H161.792c-17.92 0-31.744-14.336-31.744-31.744 0-17.92 14.336-31.744 31.744-31.744h699.904c17.92 0 32.256 14.336 32.256 31.744 0 17.408-14.336 31.744-31.744 31.744z" p-id="26711"></path></svg>