<?xml version="1.0" standalone="no"?><!DOCTYPE svg PUBLIC "-//W3C//DTD SVG 1.1//EN" "http://www.w3.org/Graphics/SVG/1.1/DTD/svg11.dtd"><svg t="1748796200422" class="icon" viewBox="0 0 1024 1024" version="1.1" xmlns="http://www.w3.org/2000/svg" p-id="27396" xmlns:xlink="http://www.w3.org/1999/xlink" width="32" height="32"><path d="M608.256 893.44c-17.92 0-31.744-14.336-31.744-31.744V448c0-7.68 3.072-15.872 8.192-21.504L793.6 192H230.4l209.408 234.496c5.12 5.632 8.192 13.312 8.192 21.504v288.768l50.688 40.96c13.824 11.264 15.872 31.232 4.608 45.056a31.8464 31.8464 0 0 1-45.056 4.608l-62.976-51.2c-7.68-6.144-11.776-15.36-11.776-25.088v-291.84L135.168 181.248c-8.192-9.216-10.24-23.04-5.12-34.304 5.12-11.776 16.896-18.944 29.184-18.944H865.28c12.8 0 24.064 7.168 29.184 18.944 5.12 11.776 3.072 25.088-5.632 34.304L640 460.288v400.896c0 17.92-13.824 32.256-31.744 32.256z" p-id="27397"></path></svg>