<?xml version="1.0" standalone="no"?><!DOCTYPE svg PUBLIC "-//W3C//DTD SVG 1.1//EN" "http://www.w3.org/Graphics/SVG/1.1/DTD/svg11.dtd"><svg t="1759217397019" class="icon" viewBox="0 0 1024 1024" version="1.1" xmlns="http://www.w3.org/2000/svg" p-id="9270" xmlns:xlink="http://www.w3.org/1999/xlink" width="32" height="32"><path d="M755.2 588.288c-81.408 0-148.992 58.368-163.84 135.168h-158.72c-7.68-40.448-30.72-75.776-61.952-100.352L467.456 430.08c14.336 4.096 29.184 6.144 44.544 6.144 92.16 0 166.912-74.752 166.912-166.912S604.16 102.4 512 102.4 345.088 177.152 345.088 269.312c0 53.76 25.6 101.888 65.024 132.096l-96.768 193.024c-14.336-4.096-29.184-6.144-44.544-6.144-92.16 0-166.912 74.752-166.912 166.912s74.752 166.912 166.912 166.912c81.408 0 148.992-58.368 163.84-135.168h158.208c14.848 76.8 82.944 135.168 163.84 135.168 92.16 0 166.912-74.752 166.912-166.912s-74.24-166.912-166.4-166.912z m102.912 166.912c0 56.832-46.08 102.912-102.912 102.912s-102.912-46.08-102.912-102.912 46.08-102.912 102.912-102.912 102.912 46.08 102.912 102.912z m-486.4 0c0 56.832-46.08 102.912-102.912 102.912-56.832 0-102.912-46.08-102.912-102.912s46.08-102.912 102.912-102.912c56.832 0 102.912 46.08 102.912 102.912zM512 165.888c56.832 0 102.912 46.08 102.912 102.912s-46.08 102.912-102.912 102.912c-56.832 0-102.912-46.08-102.912-102.912s46.08-102.912 102.912-102.912z" p-id="9271"></path></svg>