<?xml version="1.0" standalone="no"?><!DOCTYPE svg PUBLIC "-//W3C//DTD SVG 1.1//EN" "http://www.w3.org/Graphics/SVG/1.1/DTD/svg11.dtd"><svg t="1748267994081" class="icon" viewBox="0 0 1024 1024" version="1.1" xmlns="http://www.w3.org/2000/svg" p-id="29681" xmlns:xlink="http://www.w3.org/1999/xlink" width="32" height="32"><path d="M512 469.504c-53.248 0-96.256 43.008-96.256 96.256s43.008 95.744 96.256 95.744 96.256-43.008 96.256-95.744-43.008-96.256-96.256-96.256z" p-id="29682"></path><path d="M821.76 256h-48.128c-11.264 0-21.504-7.168-24.576-17.92l-17.92-57.344c-9.728-31.232-38.4-52.736-71.168-52.736H364.032c-32.768 0-61.44 21.504-71.168 52.736l-17.92 57.344c-3.072 10.752-13.312 17.92-24.064 17.92h-48.128c-65.024 0-117.248 52.736-117.248 117.248v426.496c0 64.512 52.224 117.248 117.248 117.248h619.008c64.512 0 117.248-52.224 117.248-117.248V373.248c0-64.512-52.224-117.248-117.248-117.248zM512 725.504c-88.576 0-160.256-71.68-160.256-159.744s71.68-160.256 160.256-160.256 160.256 71.68 160.256 160.256-71.68 159.744-160.256 159.744z m259.072-296.448c-17.92 0-32.256-14.336-32.256-32.256s14.336-32.256 32.256-32.256 32.256 14.336 32.256 32.256-14.336 32.256-32.256 32.256z" p-id="29683"></path></svg>