<?xml version="1.0" standalone="no"?><!DOCTYPE svg PUBLIC "-//W3C//DTD SVG 1.1//EN" "http://www.w3.org/Graphics/SVG/1.1/DTD/svg11.dtd"><svg t="1748267855341" class="icon" viewBox="0 0 1024 1024" version="1.1" xmlns="http://www.w3.org/2000/svg" p-id="26693" xmlns:xlink="http://www.w3.org/1999/xlink" width="32" height="32"><path d="M512 85.504C276.48 85.504 85.504 276.48 85.504 512S276.48 938.496 512 938.496s426.496-190.976 426.496-426.496S747.52 85.504 512 85.504z m0 788.992c-200.192 0-362.496-162.304-362.496-362.496 0-200.192 162.304-362.496 362.496-362.496s362.496 162.304 362.496 362.496-162.304 362.496-362.496 362.496z" p-id="26694"></path><path d="M512 704c-63.488 0-121.344-28.16-166.912-74.752-6.144-6.144-14.336-9.728-23.04-9.728-28.16 0-42.496 34.304-22.528 54.272C356.864 732.672 431.104 768 512 768s155.136-35.328 211.968-93.696c19.968-20.48 5.632-54.272-22.528-54.272-8.704 0-16.896 3.584-23.04 9.728-45.056 46.08-102.912 74.24-166.4 74.24z" p-id="26695"></path></svg>