<?xml version="1.0" standalone="no"?><!DOCTYPE svg PUBLIC "-//W3C//DTD SVG 1.1//EN" "http://www.w3.org/Graphics/SVG/1.1/DTD/svg11.dtd"><svg t="1748268112625" class="icon" viewBox="0 0 1024 1024" version="1.1" xmlns="http://www.w3.org/2000/svg" p-id="30322" xmlns:xlink="http://www.w3.org/1999/xlink" width="32" height="32"><path d="M888.32 138.752h-752.64c-27.648 0-50.176 22.528-50.176 50.176v646.144c0 27.648 22.528 50.176 50.176 50.176h752.64c27.648 0 50.176-22.528 50.176-50.176V188.928c0-27.648-22.528-50.176-50.176-50.176zM416.256 384c0 53.248-43.008 96.256-96.256 96.256S223.744 437.248 223.744 384s43.008-96.256 96.256-96.256S416.256 330.752 416.256 384z m458.752 401.408c0 20.48-16.384 36.864-36.864 36.864H186.368c-20.48 0-36.864-16.384-36.864-36.864v-119.296c13.824-2.56 28.16-4.096 42.496-4.096 51.2 0 100.352 17.408 140.288 49.152 3.072 2.56 6.656 5.632 10.752 9.216 29.696 25.088 75.264 12.8 88.576-23.552 0.512-2.56 1.536-4.608 2.048-6.144 40.96-112.64 148.48-188.928 270.336-188.928 49.152 0 92.672 10.24 126.976 27.136 22.528 11.264 38.4 24.576 43.52 32.768h0.512v223.744z" p-id="30323"></path></svg>