<?xml version="1.0" standalone="no"?><!DOCTYPE svg PUBLIC "-//W3C//DTD SVG 1.1//EN" "http://www.w3.org/Graphics/SVG/1.1/DTD/svg11.dtd"><svg t="1759215315448" class="icon" viewBox="0 0 1024 1024" version="1.1" xmlns="http://www.w3.org/2000/svg" p-id="7724" xmlns:xlink="http://www.w3.org/1999/xlink" width="32" height="32"><path d="M923.648 516.608l-97.792-97.792c20.992-21.504 41.472-45.056 61.44-70.656 12.288-15.36 7.68-38.4-9.728-48.128-13.824-7.68-31.232-4.096-40.96 8.704C734.208 439.808 622.08 506.88 506.88 506.88c-115.2 0-225.28-67.072-328.704-198.144-9.728-12.288-27.136-15.872-40.96-8.192-17.408 9.728-21.504 32.256-9.728 47.616 19.968 25.6 39.936 48.64 60.416 69.632l-98.816 98.816c-12.288 12.288-12.288 32.768 0 45.056 12.288 12.288 32.768 12.288 45.056 0l100.352-100.352C271.36 492.544 309.248 517.12 348.16 535.04l-35.84 133.632c-4.608 16.896 5.632 34.816 22.528 39.424s34.816-5.632 39.424-22.528l34.304-128c32.256 8.704 65.024 13.312 98.816 13.312 33.28 0 66.048-4.608 97.792-13.312l34.304 128c4.608 16.896 22.016 27.136 39.424 22.528s27.136-22.016 22.528-39.424l-35.84-133.12c38.912-17.92 76.8-42.496 113.664-73.728l99.328 99.328c12.288 12.288 32.768 12.288 45.056 0 12.8-11.776 12.8-32.256 0-44.544z" p-id="7725"></path></svg>