<?xml version="1.0" standalone="no"?><!DOCTYPE svg PUBLIC "-//W3C//DTD SVG 1.1//EN" "http://www.w3.org/Graphics/SVG/1.1/DTD/svg11.dtd"><svg t="1759215335252" class="icon" viewBox="0 0 1024 1024" version="1.1" xmlns="http://www.w3.org/2000/svg" p-id="8269" xmlns:xlink="http://www.w3.org/1999/xlink" width="32" height="32"><path d="M512 832c-155.136 0-297.472-96.256-423.936-284.672-14.336-22.528-14.336-49.664 0-72.192C214.528 288.256 356.864 192 512 192s297.472 96.256 423.936 284.672c14.336 22.528 14.336 49.664 0 72.192-126.464 187.392-268.8 283.136-423.936 283.136zM512 256c-130.56 0-253.44 83.456-365.056 247.296-3.584 5.12-3.584 12.288 0 17.408 113.664 163.84 236.544 247.296 365.056 247.296 129.024 0 253.44-83.456 365.568-247.296 3.584-5.12 3.584-12.288 0-17.408C765.44 339.456 642.56 256 512 256z" p-id="8270"></path><path d="M512 640c-70.656 0-128-57.856-128-128s57.856-128 128-128 128 57.856 128 128-57.344 128-128 128z m0-192c-35.328 0-64 28.672-64 64s28.672 64 64 64 64-28.672 64-64-28.672-64-64-64z" p-id="8271"></path></svg>