<?xml version="1.0" standalone="no"?><!DOCTYPE svg PUBLIC "-//W3C//DTD SVG 1.1//EN" "http://www.w3.org/Graphics/SVG/1.1/DTD/svg11.dtd"><svg t="1759214589840" class="icon" viewBox="0 0 1024 1024" version="1.1" xmlns="http://www.w3.org/2000/svg" p-id="1921" xmlns:xlink="http://www.w3.org/1999/xlink" width="32" height="32"><path d="M557.056 512l275.456-275.456c12.8-12.8 12.8-32.256 0-45.056s-32.256-12.8-45.056 0L512 467.456 236.544 189.952c-12.8-12.8-32.256-12.8-45.056 0-12.8 12.8-12.8 32.256 0 45.056L467.456 512l-277.504 275.456c-12.8 12.8-12.8 32.256 0 45.056 6.656 6.656 14.848 8.704 23.552 8.704 8.704 0 16.896-2.048 23.552-8.704l275.456-275.456 275.456 275.456c6.656 6.656 14.848 8.704 23.552 8.704 8.704 0 16.896-2.048 23.552-8.704 12.8-12.8 12.8-32.256 0-45.056L557.056 512z" p-id="1922"></path></svg>