<?xml version="1.0" standalone="no"?><!DOCTYPE svg PUBLIC "-//W3C//DTD SVG 1.1//EN" "http://www.w3.org/Graphics/SVG/1.1/DTD/svg11.dtd"><svg t="1755275759880" class="icon" viewBox="0 0 1024 1024" version="1.1" xmlns="http://www.w3.org/2000/svg" p-id="29083" xmlns:xlink="http://www.w3.org/1999/xlink" width="32" height="32"><path d="M430.08 956.928c-22.528 0-44.032-8.704-59.904-25.088L302.08 861.696c-12.288-12.8-12.288-32.768 0.512-45.056 14.336-13.824 22.016-32.256 22.528-52.224 0-19.968-7.168-38.912-21.504-52.736-27.648-28.672-77.312-29.184-105.472-1.536-6.144 6.144-15.36 9.216-22.528 9.216-8.192 0-16.896-3.584-22.528-9.728l-68.096-70.144c-15.36-15.872-24.064-36.864-23.552-59.392 0-22.528 9.216-43.52 25.088-58.88L529.408 87.04c32.256-31.232 87.04-30.72 118.272 1.536L716.8 157.696c12.288 12.8 12.288 32.768-0.512 45.056-14.336 13.824-22.016 32.768-22.528 52.224-0.512 19.968 7.168 38.912 20.992 52.736 27.648 28.672 77.312 29.184 105.472 1.024 6.144-6.144 14.848-8.192 22.528-9.216 8.192 0 16.896 3.584 22.528 9.728l68.096 70.144c15.36 15.872 24.064 36.864 23.552 59.392 0 22.528-9.216 43.52-25.088 58.88L488.448 931.84c-15.36 16.896-36.352 25.088-58.368 25.088z m-50.176-144.384c-6.144 16.384-2.56 34.816 9.728 47.616l26.112 27.136c7.168 7.168 20.48 7.68 27.648 0l443.392-434.688c3.584-3.584 5.632-8.704 6.144-13.824 0-5.12-2.048-10.24-5.632-13.824l-26.112-26.624c-12.288-12.8-30.72-16.896-47.616-11.264-14.848 5.12-30.208 7.68-46.08 7.68-37.888 0-72.704-14.848-99.328-41.984-25.6-26.624-39.936-61.44-39.424-98.304 0-16.896 3.072-32.768 9.216-48.128 6.144-16.384 2.56-34.816-9.728-47.616l-26.112-27.136c-7.168-7.168-20.48-7.68-27.648 0l-443.392 434.688c-3.584 3.584-5.632 8.704-6.144 13.824 0 5.12 2.048 10.24 5.632 13.824l26.112 26.624c12.288 12.8 30.72 16.896 47.616 11.264 14.848-5.12 30.208-7.68 46.08-7.68 37.888 0 72.704 14.848 99.328 41.984 25.6 26.624 39.936 61.44 39.424 98.304 0 16.896-3.072 33.28-9.216 48.128z" p-id="29084"></path><path d="M354.304 583.168c-8.704 0-17.408-3.584-24.064-10.752-11.776-12.8-10.24-32.768 1.536-44.544l177.152-177.152c12.288-12.288 32.768-13.312 45.568-1.536 13.312 12.288 13.312 33.28 0.512 45.568L376.32 573.44c-5.632 6.656-13.824 9.728-22.016 9.728zM450.048 678.912c-8.192 0-16.384-3.072-22.528-9.216-12.8-12.8-12.8-32.768 0-45.056l178.176-179.2c12.8-12.8 33.28-12.8 45.568 0.512 12.288 12.8 10.752 33.28-1.536 45.568l-177.664 177.664a30.0032 30.0032 0 0 1-22.016 9.728z" p-id="29085"></path></svg>