<?xml version="1.0" standalone="no"?><!DOCTYPE svg PUBLIC "-//W3C//DTD SVG 1.1//EN" "http://www.w3.org/Graphics/SVG/1.1/DTD/svg11.dtd"><svg t="1747753273039" class="icon" viewBox="0 0 1024 1024" version="1.1" xmlns="http://www.w3.org/2000/svg" p-id="26819" xmlns:xlink="http://www.w3.org/1999/xlink" width="32" height="32"><path d="M896 232.96h-288.256c-17.92 0-32.256-14.336-32.256-32.256s14.336-32.256 32.256-32.256H896c17.92 0 32.256 14.336 32.256 32.256s-14.336 32.256-32.256 32.256zM896 413.696h-288.256c-17.92 0-32.256-14.336-32.256-32.256s14.336-32.256 32.256-32.256H896c17.92 0 32.256 14.336 32.256 32.256s-14.336 32.256-32.256 32.256zM896 678.4h-288.256c-17.92 0-32.256-14.336-32.256-31.744s14.336-32.256 32.256-32.256H896c17.92 0 32.256 14.336 32.256 32.256s-14.336 31.744-32.256 31.744zM896 859.136h-288.256c-17.92 0-32.256-14.336-32.256-32.256s14.336-32.256 32.256-32.256H896c17.92 0 32.256 14.336 32.256 32.256s-14.336 32.256-32.256 32.256zM427.008 480.256H148.992c-29.184 0-53.248-24.064-53.248-53.248V148.992c0-29.184 24.064-53.248 53.248-53.248h277.504c29.184 0 53.248 24.064 53.248 53.248v277.504c0.512 29.696-23.552 53.76-52.736 53.76z m-41.472-320h-194.56c-16.896 0-30.72 13.824-30.72 30.72v194.56c0 16.896 13.824 30.72 30.72 30.72h194.56c16.896 0 30.72-13.824 30.72-30.72v-194.56c0-17.408-13.824-30.72-30.72-30.72zM427.008 928.256H148.992c-29.184 0-53.248-24.064-53.248-53.248v-277.504c0-29.184 24.064-53.248 53.248-53.248h277.504c29.184 0 53.248 24.064 53.248 53.248v277.504c0.512 29.184-23.552 53.248-52.736 53.248z m-41.472-320h-194.56c-16.896 0-30.72 13.824-30.72 30.72v194.56c0 16.896 13.824 30.72 30.72 30.72h194.56c16.896 0 30.72-13.824 30.72-30.72v-194.56c0-17.408-13.824-30.72-30.72-30.72z" p-id="26820"></path></svg>