<?xml version="1.0" standalone="no"?><!DOCTYPE svg PUBLIC "-//W3C//DTD SVG 1.1//EN" "http://www.w3.org/Graphics/SVG/1.1/DTD/svg11.dtd"><svg t="1747756204009" class="icon" viewBox="0 0 1024 1024" version="1.1" xmlns="http://www.w3.org/2000/svg" p-id="92842" xmlns:xlink="http://www.w3.org/1999/xlink" width="32" height="32"><path d="M887.808 899.072c-25.6-133.632-117.248-238.592-238.08-287.232 28.672-16.384 54.272-37.888 75.776-62.976 1.024-1.024 2.048-2.56 3.072-4.096 0.512-0.512 1.024-1.536 1.536-2.048 31.744-38.912 53.248-86.016 60.928-137.216V404.48c1.536-8.704 2.048-17.92 2.56-26.624v-3.072c0-4.608 0.512-8.704 0.512-13.312 0-160.256-128-288.256-288.256-288.256-160.256 0-288.256 128-288.256 288.256 0 4.608 0 8.704 0.512 13.312v3.072c0.512 9.216 1.536 17.92 2.56 26.624v1.024c7.68 51.2 29.184 98.816 60.928 137.216 0.512 0.512 1.024 1.536 1.536 2.048 1.024 1.536 2.048 2.56 3.072 4.096 21.504 25.088 47.104 46.592 75.776 62.976-120.832 48.128-212.48 153.6-238.08 287.232-3.072 15.872 6.656 35.328 25.6 38.4h712.192c19.456-3.072 29.184-22.016 26.112-38.4z" p-id="92843"></path></svg>