<?xml version="1.0" standalone="no"?><!DOCTYPE svg PUBLIC "-//W3C//DTD SVG 1.1//EN" "http://www.w3.org/Graphics/SVG/1.1/DTD/svg11.dtd"><svg t="1747753607104" class="icon" viewBox="0 0 1024 1024" version="1.1" xmlns="http://www.w3.org/2000/svg" p-id="54394" xmlns:xlink="http://www.w3.org/1999/xlink" width="32" height="32"><path d="M421.376 480.256H154.624c-32.256 0-58.368-26.112-58.368-58.368V154.624c0-32.256 26.112-58.368 58.368-58.368h267.264c32.256 0 58.368 26.112 58.368 58.368v267.264c0 31.744-26.624 58.368-58.88 58.368z m-36.352-320H190.976c-17.408 0-31.232 13.824-31.232 31.232v193.536c0 17.408 13.824 31.232 31.232 31.232h193.536c17.408 0 31.232-13.824 31.232-31.232V190.976c0.512-16.896-13.824-30.72-30.72-30.72zM421.376 928.256H154.624c-32.256 0-58.368-26.112-58.368-58.368v-267.264c0-32.256 26.112-58.368 58.368-58.368h267.264c32.256 0 58.368 26.112 58.368 58.368v267.264c0 31.744-26.624 58.368-58.88 58.368z m-36.352-320H190.976c-17.408 0-31.232 13.824-31.232 31.232v193.536c0 17.408 13.824 31.232 31.232 31.232h193.536c17.408 0 31.232-13.824 31.232-31.232v-193.536c0.512-17.408-13.824-31.232-30.72-31.232zM868.864 480.256h-266.752c-32.256 0-58.368-26.112-58.368-58.368V154.112c0-32.256 26.112-58.368 58.368-58.368h267.264c32.256 0 58.368 26.112 58.368 58.368v267.264c0 31.744-26.624 58.88-58.88 58.88z m-36.352-320.512h-194.048c-17.408 0-31.232 13.824-31.232 31.232v193.536c0 17.408 13.824 31.232 31.232 31.232h193.536c17.408 0 31.232-13.824 31.232-31.232V190.464c0.512-16.896-13.824-30.72-30.72-30.72zM868.864 928.256h-266.752c-32.256 0-58.368-26.112-58.368-58.368v-267.264c0-32.256 26.112-58.368 58.368-58.368h267.264c32.256 0 58.368 26.112 58.368 58.368v267.264c0 31.744-26.624 58.368-58.88 58.368z m-36.352-320h-194.048c-17.408 0-31.232 13.824-31.232 31.232v193.536c0 17.408 13.824 31.232 31.232 31.232h193.536c17.408 0 31.232-13.824 31.232-31.232v-193.536c0.512-17.92-13.824-31.232-30.72-31.232z" p-id="54395"></path></svg>