<?xml version="1.0" standalone="no"?><!DOCTYPE svg PUBLIC "-//W3C//DTD SVG 1.1//EN" "http://www.w3.org/Graphics/SVG/1.1/DTD/svg11.dtd"><svg t="1747756933386" class="icon" viewBox="0 0 1024 1024" version="1.1" xmlns="http://www.w3.org/2000/svg" p-id="94709" xmlns:xlink="http://www.w3.org/1999/xlink" width="32" height="32"><path d="M512 85.504c-235.52 0-427.008 190.976-426.496 427.008 0 224.256 176.128 411.648 399.872 425.472 154.624 9.728 297.984-64 381.44-188.928 7.68-11.264 7.68-26.112-1.024-36.864-14.336-18.432-40.448-16.384-52.224 1.536-67.072 99.84-179.2 161.28-301.568 161.28-203.264 0-367.616-167.424-362.496-371.712 4.608-191.488 159.744-347.648 351.232-353.792 196.608-6.144 359.424 144.384 373.248 336.384 0.512 7.168-7.168 11.776-13.312 8.704l-37.888-21.504c-15.872-8.704-35.84-3.072-44.032 13.312-8.192 15.36-1.536 34.816 13.824 43.52l96.256 54.272c20.48 11.264 45.568-2.048 47.616-25.088 1.536-19.968 2.56-35.328 2.56-46.592C938.496 276.48 747.52 85.504 512 85.504z" p-id="94710"></path><path d="M617.472 565.248h-68.096v-42.496h69.12c13.824 0 26.112-8.192 30.208-21.504 7.168-22.016-9.216-42.496-30.208-42.496h-47.104L642.56 373.76c11.264-13.312 10.752-33.792-2.56-45.568-13.824-11.776-34.304-10.24-45.568 3.584l-76.8 92.16-76.288-91.648c-11.264-13.312-31.232-16.384-45.056-5.632-14.336 11.264-16.384 31.744-4.608 45.568l71.68 86.016h-47.104c-20.992 0-37.376 20.48-30.208 42.496 4.096 12.8 16.896 21.504 30.208 21.504h69.12v42.496H417.28c-17.408 0-32.768 13.312-33.28 31.232-0.512 17.92 13.824 32.768 31.744 32.768h69.12v41.472c0 17.408 13.312 32.768 31.232 33.28 17.92 0.512 32.768-13.824 32.768-31.744v-42.496h69.12c17.92 0 32.768-14.848 31.744-32.768 0.512-17.408-14.848-31.232-32.256-31.232z" p-id="94711"></path></svg>