<?xml version="1.0" standalone="no"?><!DOCTYPE svg PUBLIC "-//W3C//DTD SVG 1.1//EN" "http://www.w3.org/Graphics/SVG/1.1/DTD/svg11.dtd"><svg t="1756613062217" class="icon" viewBox="0 0 1024 1024" version="1.1" xmlns="http://www.w3.org/2000/svg" p-id="40544" xmlns:xlink="http://www.w3.org/1999/xlink" width="32" height="32"><path d="M928.768 462.848c18.432-19.456 20.48-53.76-0.512-74.752-8.704-8.704-19.456-12.8-29.696-14.848l-221.696-32.256c-8.192-1.024-15.36-6.144-18.944-13.824l-98.816-201.728c-6.656-12.8-16.896-23.552-29.696-27.648-5.632-2.048-11.264-2.56-16.896-3.072-5.632 0-11.776 1.024-16.896 3.072-12.8 4.096-23.552 14.848-29.696 27.648L366.08 327.168c-3.584 7.168-10.752 12.288-18.944 13.824l-221.696 32.256c-10.752 2.048-21.504 6.656-29.696 14.848-21.504 21.504-19.456 55.296 0 74.752l161.28 157.184c5.632 5.632 8.704 13.824 7.168 22.016l-38.4 221.696c-2.048 10.752 0 23.552 6.656 34.304 12.8 25.6 47.104 36.352 72.704 21.504l195.584-102.4c7.168-3.584 15.872-3.584 23.04 0l195.584 102.4c25.6 14.848 59.904 4.096 72.704-21.504 6.656-10.752 8.704-23.552 6.656-34.304l-38.4-221.696c-1.536-8.192 1.024-16.384 7.168-22.016l161.28-157.184z" p-id="40545"></path></svg>