<?xml version="1.0" standalone="no"?><!DOCTYPE svg PUBLIC "-//W3C//DTD SVG 1.1//EN" "http://www.w3.org/Graphics/SVG/1.1/DTD/svg11.dtd"><svg t="1747754412881" class="icon" viewBox="0 0 1024 1024" version="1.1" xmlns="http://www.w3.org/2000/svg" p-id="83547" xmlns:xlink="http://www.w3.org/1999/xlink" width="32" height="32"><path d="M797.525 752.267c62.07-72.736 97.28-165.003 97.28-262.187 0.011-223.552-181.184-404.747-404.725-404.747-223.541 0-404.747 181.206-404.747 404.736 0 223.542 181.206 404.758 404.736 404.758a404.693 404.693 0 0 0 118.208-17.547 32 32 0 0 0-18.666-61.216 340.693 340.693 0 0 1-99.542 14.763c-188.181-0.011-340.736-152.566-340.736-340.758 0-188.181 152.555-340.736 340.736-340.736 188.192 0 340.758 152.555 340.758 340.736 0 89.28-35.382 173.696-97.142 237.323a36.992 36.992 0 0 0 0.384 51.925l149.974 149.974a32 32 0 0 0 45.258-45.248L797.525 752.267z" p-id="83548"></path></svg>