<?xml version="1.0" standalone="no"?><!DOCTYPE svg PUBLIC "-//W3C//DTD SVG 1.1//EN" "http://www.w3.org/Graphics/SVG/1.1/DTD/svg11.dtd"><svg t="1747754045354" class="icon" viewBox="0 0 1024 1024" version="1.1" xmlns="http://www.w3.org/2000/svg" p-id="82284" xmlns:xlink="http://www.w3.org/1999/xlink" width="32" height="32"><path d="M512 74.752c-241.152 0-437.248 196.096-437.248 437.248s196.096 437.248 437.248 437.248 437.248-196.096 437.248-437.248-196.096-437.248-437.248-437.248z m0 810.496c-204.8 0-373.248-168.448-373.248-373.248S307.2 138.752 512 138.752 885.248 307.2 885.248 512 716.8 885.248 512 885.248z" p-id="82285"></path><path d="M701.952 381.952l-253.952 256L322.048 512c-12.8-12.8-32.256-12.8-45.056 0-12.8 12.8-12.8 32.256 0 45.056L426.496 706.56c6.656 6.656 14.848 8.704 23.552 8.704s16.896-2.048 23.552-8.704l277.504-277.504c12.8-12.8 12.8-32.256 0-45.056-14.848-12.8-33.792-17.408-49.152-2.048z" p-id="82286"></path></svg>