<?xml version="1.0" standalone="no"?><!DOCTYPE svg PUBLIC "-//W3C//DTD SVG 1.1//EN" "http://www.w3.org/Graphics/SVG/1.1/DTD/svg11.dtd"><svg t="1707194750824" class="icon" viewBox="0 0 1024 1024" version="1.1" xmlns="http://www.w3.org/2000/svg" p-id="3134" data-spm-anchor-id="a313x.collections_detail.0.i22.4a323a81nCB6eV" xmlns:xlink="http://www.w3.org/1999/xlink" width="128" height="128"><path d="M773.9392 301.8752m-200.0384 0a200.0384 200.0384 0 1 0 400.0768 0 200.0384 200.0384 0 1 0-400.0768 0Z" fill="#89F1A8" p-id="3135" data-spm-anchor-id="a313x.collections_detail.0.i19.4a323a81nCB6eV" class=""></path><path d="M924.4672 706.2528a24.32 24.32 0 0 1-24.2688 24.2688h-145.7664a24.3712 24.3712 0 0 0-24.2688 24.32 24.2688 24.2688 0 0 0 24.2688 24.2688h48.5888a24.32 24.32 0 0 1 24.2688 24.32 24.32 24.32 0 0 1-24.2688 24.2688h-64.512A388.7616 388.7616 0 0 1 122.88 390.4512h-48.5888a24.32 24.32 0 0 1 0-48.5888h97.28a24.2688 24.2688 0 0 0 6.8096-47.5648l0.768-0.9728H122.88a24.32 24.32 0 1 1 0-48.5888h101.632a388.7616 388.7616 0 0 1 619.52 437.248h56.32a24.32 24.32 0 0 1 24.1152 24.2688z" fill="#1AAD19" p-id="3136" data-spm-anchor-id="a313x.collections_detail.0.i23.4a323a81nCB6eV" class="selected"></path><path d="M570.368 443.2384h6.0928a8.704 8.704 0 0 0 8.8064-11.1616c-21.9648-68.4032-99.2768-117.76-186.88-117.76C294.7584 314.3168 209.92 383.6928 209.92 471.7568c0 48.9472 26.1632 89.3952 70.144 121.2416a8.8064 8.8064 0 0 1 3.2256 9.8816l-10.24 29.7984a8.6528 8.6528 0 0 0 12.032 10.5472l44.4928-21.9136a8.6016 8.6016 0 0 1 5.5296-0.768c22.272 4.4032 40.5504 8.7552 63.1296 8.7552h6.9632a8.6528 8.6528 0 0 0 8.0384-10.5472 133.12 133.12 0 0 1-3.2256-28.8256c0-80.896 70.7072-146.5344 160.2048-146.5344z m-101.3248-50.2272a23.1424 23.1424 0 1 1 0 46.08c-14.1824 0-28.2624-9.2672-28.2624-23.1424s14.1312-22.9376 28.2624-22.9376z m-131.8912 46.08c-14.1312 0-28.3648-9.2672-28.3648-23.1424s14.2336-23.1424 28.3648-23.1424a23.1424 23.1424 0 1 1 0 46.08z m405.248 148.48c0-73.984-75.3664-134.3488-160.1024-134.3488-89.6512 0-160.256 60.3648-160.256 134.3488S492.6464 721.92 582.2976 721.92a227.0208 227.0208 0 0 0 53.2992-8.448 8.6528 8.6528 0 0 1 6.1952 0.768l30.1568 16.2304a8.704 8.704 0 0 0 12.4416-10.24l-6.2464-20.48a8.6528 8.6528 0 0 1 3.072-9.4208C716.8 663.0912 742.4 627.5072 742.4 587.52z m-212.0704-23.1424a18.5344 18.5344 0 1 1 0-37.0688c14.2848 0 23.6032 9.2672 23.6032 18.4832s-9.3184 18.5344-23.6032 18.5344z m103.68 0a18.5344 18.5344 0 1 1 0-37.0688c14.1312 0 23.552 9.2672 23.552 18.4832s-9.4208 18.5344-23.552 18.5344z" fill="#FFFFFF" p-id="3137"></path></svg>