<?xml version="1.0" standalone="no"?><!DOCTYPE svg PUBLIC "-//W3C//DTD SVG 1.1//EN" "http://www.w3.org/Graphics/SVG/1.1/DTD/svg11.dtd"><svg t="1756612727246" class="icon" viewBox="0 0 1024 1024" version="1.1" xmlns="http://www.w3.org/2000/svg" p-id="27718" xmlns:xlink="http://www.w3.org/1999/xlink" width="32" height="32"><path d="M512 85.504c235.52 0 426.496 190.976 426.496 426.496S747.52 938.496 512 938.496 85.504 747.52 85.504 512 276.48 85.504 512 85.504z m0 64c-200.192 0-362.496 162.304-362.496 362.496s162.304 362.496 362.496 362.496 362.496-162.304 362.496-362.496-162.304-362.496-362.496-362.496z" p-id="27719"></path><path d="M619.008 457.216h-53.248L638.976 384c12.8-12.8 12.8-32.768 0-45.568s-32.768-12.8-45.568 0L512 419.84 430.592 338.432c-12.8-12.8-32.768-12.8-45.568 0s-12.8 32.768 0 45.568l73.216 73.216H404.992c-17.92 0-32.256 14.336-32.256 32.256s14.336 32.256 32.256 32.256h74.752v44.544H404.992c-17.92 0-32.256 14.336-32.256 32.256s14.336 32.256 32.256 32.256h74.752v41.984c0 17.92 14.336 32.256 32.256 32.256s32.256-14.336 32.256-32.256v-41.984h74.752c17.92 0 32.256-14.336 32.256-32.256s-14.336-32.256-32.256-32.256h-74.752v-44.544h74.752c17.92 0 32.256-14.336 32.256-32.256s-14.848-32.256-32.256-32.256z" p-id="27720"></path></svg>