<?xml version="1.0" standalone="no"?><!DOCTYPE svg PUBLIC "-//W3C//DTD SVG 1.1//EN" "http://www.w3.org/Graphics/SVG/1.1/DTD/svg11.dtd"><svg t="1756612668122" class="icon" viewBox="0 0 1024 1024" version="1.1" xmlns="http://www.w3.org/2000/svg" p-id="26729" xmlns:xlink="http://www.w3.org/1999/xlink" width="32" height="32"><path d="M952.832 352.768v-1.536c-0.512-2.048-1.024-3.584-1.536-5.12l-75.264-186.88c-13.312-38.912-50.176-62.464-93.696-62.464H255.488c-44.032 0-78.848 23.552-91.136 60.928L83.968 348.16c-0.512 1.024-1.024 2.56-1.024 4.608-5.632 17.92-8.704 36.352-8.704 55.296 0 65.024 35.84 124.928 93.184 155.136 23.552 12.8 51.2 18.944 82.944 18.944 52.224 0 101.376-23.04 134.144-62.976 33.28 39.424 81.408 61.952 133.632 62.464 51.712-0.512 100.352-23.552 133.12-62.464 33.28 39.424 81.92 62.464 134.656 62.464 31.744 0 60.416-6.656 83.968-19.968 56.832-30.72 91.648-90.112 91.648-154.624 0-18.944-3.072-37.376-8.704-54.272z m-113.664 152.576c-14.336 7.68-32.256 12.288-53.76 12.288-38.912 0-74.24-19.968-95.232-53.248-1.536-3.072-4.096-8.192-8.704-13.312-5.12-5.632-14.848-12.8-30.72-12.8-12.8 0-24.064 5.12-30.72 13.312-4.096 4.608-6.656 9.728-8.192 13.312-20.48 33.28-55.808 53.248-93.696 53.248-38.912 0-73.728-19.968-94.72-53.248-1.536-3.072-3.584-7.68-7.68-12.288-14.848-17.92-48.64-16.896-61.952-1.536-4.608 5.12-7.168 10.752-8.704 14.336-20.48 33.28-56.32 52.736-94.72 53.248-20.48 0-38.4-4.096-52.736-11.776C160.768 487.424 138.24 449.536 138.24 408.064c0-12.288 2.048-24.576 6.144-36.864 0.512-1.024 0.512-2.048 0.512-2.56l79.36-187.904c1.536-4.608 6.656-19.456 31.232-19.456h526.848c10.24 0.512 27.648 2.56 33.792 20.48l74.24 185.344c0.512 1.536 0.512 2.56 1.024 3.584 4.096 12.288 6.144 24.064 6.144 36.352 0 40.96-22.528 78.336-58.368 98.304zM863.232 607.744c-17.92 0-31.744 14.336-31.744 31.744V814.08c0 9.728-8.192 17.92-17.92 17.92l-602.112 0.512c-9.728 0-17.92-8.192-17.92-17.92v-171.52c0-17.92-14.336-31.744-31.744-31.744-17.92 0-31.744 14.336-31.744 31.744v171.52c0 45.056 36.864 81.92 81.92 81.92L814.08 896c45.056 0 81.92-36.864 81.92-81.92v-174.08c-1.024-17.408-15.36-32.256-32.768-32.256z" p-id="26730"></path><path d="M717.312 336.384H301.568c-17.92 0-31.744-14.336-31.744-31.744 0-17.92 14.336-31.744 31.744-31.744H716.8c17.92 0 31.744 14.336 31.744 31.744 0.512 17.408-13.824 31.744-31.232 31.744z" p-id="26731"></path></svg>