<?xml version="1.0" standalone="no"?><!DOCTYPE svg PUBLIC "-//W3C//DTD SVG 1.1//EN" "http://www.w3.org/Graphics/SVG/1.1/DTD/svg11.dtd"><svg t="1747755807685" class="icon" viewBox="0 0 1024 1024" version="1.1" xmlns="http://www.w3.org/2000/svg" p-id="87754" xmlns:xlink="http://www.w3.org/1999/xlink" width="32" height="32"><path d="M933.376 379.392L865.28 309.248c-5.632-6.144-14.336-9.728-22.528-9.728-7.68 1.024-16.384 3.072-22.528 9.216-28.16 28.16-77.824 27.648-105.472-1.024-13.824-13.824-21.504-32.768-20.992-52.736 0.512-19.456 8.192-38.4 22.528-52.224 12.8-12.288 12.8-32.256 0.512-45.056l-69.12-69.12c-31.232-32.256-86.016-32.768-118.272-1.536l-442.88 434.176c-15.872 15.36-25.088 36.352-25.088 58.88-0.512 22.528 8.192 43.52 23.552 59.392l68.096 70.144c5.632 6.144 14.336 9.728 22.528 9.728 7.168 0 16.384-3.072 22.528-9.216 28.16-27.648 77.824-27.136 105.472 1.536 14.336 13.824 21.504 32.768 21.504 52.736-0.512 19.968-8.192 38.4-22.528 52.224-12.8 12.288-12.8 32.256-0.512 45.056L370.176 931.84c15.872 16.384 37.376 25.088 59.904 25.088 22.016 0 43.008-8.192 58.368-25.088L931.84 497.664c15.872-15.36 25.088-36.352 25.088-58.88 0.512-22.528-8.192-43.52-23.552-59.392zM427.52 624.64l178.176-179.2c12.8-12.8 33.28-12.8 45.568 0.512 12.288 12.8 10.752 33.28-1.536 45.568l-177.664 177.664a30.0032 30.0032 0 0 1-22.016 9.728c-8.192 0-16.384-3.072-22.528-9.216-12.8-12.8-12.8-32.768 0-45.056z m-51.2-51.2c-5.632 6.656-13.824 9.728-22.016 9.728-8.704 0-17.408-3.584-24.064-10.752-11.776-12.8-10.24-32.768 1.536-44.544l177.152-177.152c12.288-12.288 32.768-13.312 45.568-1.536 13.312 12.288 13.312 33.28 0.512 45.568L376.32 573.44z" p-id="87755"></path></svg>