<?xml version="1.0" standalone="no"?><!DOCTYPE svg PUBLIC "-//W3C//DTD SVG 1.1//EN" "http://www.w3.org/Graphics/SVG/1.1/DTD/svg11.dtd"><svg t="1757604091852" class="icon" viewBox="0 0 1024 1024" version="1.1" xmlns="http://www.w3.org/2000/svg" p-id="28822" xmlns:xlink="http://www.w3.org/1999/xlink" width="32" height="32"><path d="M512 149.504c-176.64 0-320 143.36-320 320 0 111.104 68.608 187.392 71.68 190.464 29.696 32.768 56.32 100.352 56.32 144.896v55.808c0 70.656 57.344 128 128 128h128c70.656 0 128-57.344 128-128v-55.808c0-44.544 26.112-112.128 56.32-144.896 3.072-3.584 71.68-79.36 71.68-190.464 0-176.64-143.36-320-320-320zM415.744 832c0-17.92 14.336-32.256 32.256-32.256h128c17.92 0 32.256 14.336 32.256 32.256s-14.336 32.256-32.256 32.256h-128c-17.408 0-32.256-14.336-32.256-32.256z m194.048-318.976l-12.288-36.352c-1.536-4.608-7.68-6.144-11.264-2.56l-51.712 51.712c-12.288 12.288-32.768 12.288-45.056 0L437.76 474.112c-3.584-3.584-9.728-2.048-11.264 2.56l-12.288 36.352c-5.632 16.896-23.552 26.112-40.448 19.968-16.896-5.632-25.6-23.552-19.968-40.448l32.256-96.256c3.584-10.752 12.288-18.432 23.04-20.992 10.752-2.56 22.016 0.512 30.208 8.704l68.608 68.608c2.56 2.56 6.656 2.56 9.728 0L586.24 384c7.68-7.68 18.944-11.264 30.208-8.704 10.752 2.56 19.456 10.24 23.04 20.992l32.256 96.256c5.632 16.896-3.584 34.816-19.968 40.448-5.12 1.536-8.192 2.048-11.776 2.048-13.312 0-26.112-8.704-30.208-22.016zM920.576 174.08c-11.776-13.312-31.744-14.336-45.056-2.56l-32.768 29.184c-13.312 11.776-14.336 31.744-2.56 45.056 6.144 7.168 14.848 10.752 23.552 10.752 7.68 0 15.36-3.072 22.016-8.192l32.768-29.184c12.8-11.776 13.824-31.744 2.048-45.056zM181.248 200.704L148.48 171.52c-12.8-11.776-33.28-10.24-45.056 2.56s-10.752 33.28 2.56 45.056l32.768 29.184c6.144 5.632 13.824 8.192 21.504 8.192 8.704 0 17.408-3.584 23.552-10.752 11.776-12.8 10.752-33.28-2.56-45.056zM512 128c17.408 0 32.256-14.336 32.256-32.256v-31.744c0-17.92-14.336-32.256-32.256-32.256s-32.256 14.336-32.256 32.256v31.744c0 17.92 14.848 32.256 32.256 32.256z" p-id="28823"></path></svg>