<?xml version="1.0" standalone="no"?><!DOCTYPE svg PUBLIC "-//W3C//DTD SVG 1.1//EN" "http://www.w3.org/Graphics/SVG/1.1/DTD/svg11.dtd"><svg t="1747755653446" class="icon" viewBox="0 0 1024 1024" version="1.1" xmlns="http://www.w3.org/2000/svg" p-id="87050" xmlns:xlink="http://www.w3.org/1999/xlink" width="32" height="32"><path d="M161.792 322.56m-58.368 0a58.368 58.368 0 1 0 116.736 0 58.368 58.368 0 1 0-116.736 0Z" p-id="87051"></path><path d="M298.496 234.496c-8.704-0.512-16.896-5.12-22.528-12.288-10.752-13.824-8.192-33.792 5.632-45.056 5.632-4.096 54.784-41.472 103.936-34.816 16.896 2.56 29.696 17.408 28.672 34.304-1.536 18.944-18.944 31.744-36.864 29.184-17.408-2.56-45.568 13.824-55.808 21.504-7.68 6.144-15.36 8.192-23.04 7.168zM594.432 134.656c-20.992-9.728-45.056-9.728-65.024-7.168-17.408 2.048-29.696 18.432-27.136 35.84v1.024c2.56 16.896 17.92 28.672 34.816 26.624 11.264-1.536 23.552-1.536 31.232 2.56 16.384 8.192 36.864 1.024 44.032-16.896 6.656-16.384-2.048-34.816-17.92-41.984zM852.48 643.072c-4.096-3.072-71.68-38.912-73.728-78.848-1.024-15.36 11.264-31.744 12.8-44.032 10.24-66.048-11.264-133.12-59.392-187.392-46.592-53.248-114.176-88.576-189.44-99.84s-148.992 2.56-209.408 39.424c-61.44 38.912-101.376 96.256-111.104 162.304-19.456 128.512 81.408 253.44 230.4 284.16 2.048 0.512 80.896-1.024 118.272 38.912 32.768 34.816 82.432 110.592 86.528 112.64 27.648 36.352 70.656 57.856 117.248 57.856 80.896 0 147.456-66.048 147.456-147.456 0-46.592-36.864-111.616-69.632-137.728z" p-id="87052"></path></svg>