<?xml version="1.0" standalone="no"?><!DOCTYPE svg PUBLIC "-//W3C//DTD SVG 1.1//EN" "http://www.w3.org/Graphics/SVG/1.1/DTD/svg11.dtd"><svg t="1747757638208" class="icon" viewBox="0 0 1024 1024" version="1.1" xmlns="http://www.w3.org/2000/svg" p-id="95564" xmlns:xlink="http://www.w3.org/1999/xlink" width="32" height="32"><path d="M751.616 301.056c10.752-30.208 9.216-62.976-4.096-99.328-1.536-3.584-4.608-6.656-9.216-7.168-9.728-1.024-22.016 1.536-36.864 7.168-17.92 6.144-34.304 14.336-50.176 24.064l-16.896 10.752c-2.56 1.536-5.632 2.048-8.704 1.536-32.256-8.704-66.56-12.8-99.84-12.8-34.304 0-67.584 4.096-99.84 12.8-3.072 1.024-6.144 0.512-8.704-1.536-6.144-4.096-12.288-8.192-18.944-11.776-9.728-5.632-25.088-12.8-45.568-20.992-16.384-6.656-29.696-9.728-39.424-8.704-4.096 0.512-8.192 3.072-9.728 7.168-12.8 36.352-14.336 69.12-3.584 98.816 1.536 3.584 0.512 7.68-2.048 10.752-25.6 30.72-38.912 66.048-38.912 107.52 0 31.232 3.584 58.368 11.264 81.92s17.408 42.496 28.672 57.344c11.776 14.848 26.112 26.624 44.032 36.352s34.816 16.896 51.2 21.504c11.776 3.072 24.064 5.12 35.84 7.168 8.192 1.536 11.776 10.24 7.168 16.896-6.656 10.24-10.752 22.016-13.312 35.84-0.512 3.584-3.584 7.168-6.656 8.704-6.144 2.56-12.288 4.096-18.432 5.12-10.24 2.048-20.48 3.072-31.232 2.56-11.776 0-24.064-3.584-35.84-11.776-11.776-8.192-21.504-18.944-30.208-33.792-6.656-11.264-15.872-20.992-26.112-28.672-10.752-7.68-19.456-11.776-26.624-12.8l-10.24-1.536h-2.048c-7.168 0-11.776 1.024-14.848 2.56-3.072 2.048-3.584 3.584-2.56 6.144l4.608 7.68c1.536 2.56 4.608 4.608 7.168 6.656l3.584 2.56c8.192 3.584 15.872 10.752 24.064 20.48s13.312 18.944 17.408 27.648l5.12 12.288v0.512c4.608 13.824 12.288 25.088 24.064 32.768 11.264 8.704 23.552 13.824 36.352 16.384s25.088 3.584 37.888 3.584c11.776 0 22.016-0.512 30.208-2.048 6.656-1.024 12.288 3.584 12.288 10.752 0 10.752 0 23.04 0.512 35.84 0 18.432 0.512 28.672 0.512 29.184v20.48c0 5.12 3.584 9.728 8.192 10.752 23.04 5.12 55.808 10.752 95.232 10.752 25.088 0 58.88-2.56 96.256-10.752 4.608-1.024 8.192-5.632 8.192-10.752 0-6.656-0.512-16.384 0-19.456v-114.688c0-26.112-5.12-47.104-16.384-63.488-4.096-6.656 0-15.36 7.68-16.896 11.776-2.048 24.064-4.096 35.328-7.168 17.92-4.608 34.816-11.776 51.2-21.504 17.92-10.24 32.256-22.016 44.032-35.84 11.776-14.336 21.504-33.28 28.672-57.344 7.68-24.064 11.264-51.2 11.264-82.432 0-41.472-12.8-77.312-38.912-107.52-2.56-2.048-3.072-6.144-2.048-10.24z" p-id="95565"></path></svg>