<?xml version="1.0" standalone="no"?><!DOCTYPE svg PUBLIC "-//W3C//DTD SVG 1.1//EN" "http://www.w3.org/Graphics/SVG/1.1/DTD/svg11.dtd"><svg t="1747756805118" class="icon" viewBox="0 0 1024 1024" version="1.1" xmlns="http://www.w3.org/2000/svg" p-id="93821" xmlns:xlink="http://www.w3.org/1999/xlink" width="32" height="32"><path d="M416.768 517.12h-128c-17.92 0-31.744-14.336-31.744-31.744 0-17.92 14.336-31.744 31.744-31.744h95.744V356.864c0-17.92 14.336-31.744 31.744-31.744s31.744 14.336 31.744 31.744v128c0.512 17.92-13.824 32.256-31.232 32.256zM701.952 667.136c-61.952 0-113.664 43.52-127.488 101.376H451.072c-13.824-57.856-65.536-101.376-127.488-101.376-72.192 0-131.072 58.88-131.072 131.072 0 72.192 58.88 131.072 131.072 131.072 60.416 0 110.592-41.472 125.952-96.768h126.464c15.36 55.808 65.536 96.768 125.952 96.768 72.192 0 131.072-58.88 131.072-131.072s-58.368-131.072-131.072-131.072zM323.584 865.28c-36.864 0-67.072-30.208-67.072-67.072 0-36.864 30.208-67.072 67.072-67.072s67.072 30.208 67.072 67.072c0 36.864-29.696 67.072-67.072 67.072z m378.368-0.512c-36.864 0-67.072-30.208-67.072-67.072s30.208-67.072 67.072-67.072 67.072 30.208 67.072 67.072-29.696 67.072-67.072 67.072z" p-id="93822"></path><path d="M864.256 141.824H399.872c-44.032 0-79.872 35.84-79.872 79.872v7.168c0 17.92-10.24 33.792-26.112 41.984L125.44 355.84c-1.536 0.512-2.56 1.536-4.096 2.56-36.352 25.6-56.32 65.024-56.32 111.616v320.512c0 17.408 13.312 32.768 31.232 33.28 17.92 0.512 32.768-13.824 32.768-31.744v-322.56c0-25.088 9.216-44.544 27.136-57.856l209.92-105.472c1.536-0.512 2.56-2.048 3.584-3.072 0.512 0 0.512-0.512 1.024-0.512 3.072-2.048 5.632-5.12 7.68-8.192 1.024-1.536 2.048-3.072 3.072-5.12 1.024-2.048 1.024-4.608 1.536-6.656 0-1.536 1.024-3.072 1.024-4.608v-56.32c0-8.704 7.168-15.872 15.872-15.872h464.384c17.408 0 31.744 14.848 31.744 32.256v544.768c0 17.408 13.312 32.768 31.232 33.28 17.92 0.512 32.768-13.824 32.768-31.744V238.592c0-53.248-43.008-96.768-95.744-96.768z" p-id="93823"></path></svg>