<?xml version="1.0" standalone="no"?><!DOCTYPE svg PUBLIC "-//W3C//DTD SVG 1.1//EN" "http://www.w3.org/Graphics/SVG/1.1/DTD/svg11.dtd"><svg t="1747755894324" class="icon" viewBox="0 0 1024 1024" version="1.1" xmlns="http://www.w3.org/2000/svg" p-id="90872" xmlns:xlink="http://www.w3.org/1999/xlink" width="32" height="32"><path d="M504.32 451.072m-85.504 0a85.504 85.504 0 1 0 171.008 0 85.504 85.504 0 1 0-171.008 0Z" p-id="90873"></path><path d="M504.32 110.592c-196.608 0-356.352 159.744-356.352 356.352 0 136.192 99.328 222.72 187.392 313.856 30.208 31.232 103.424 99.328 143.36 136.192 14.848 13.312 37.376 13.312 52.224 0 39.424-36.352 112.64-104.448 142.848-136.192 90.112-93.184 187.392-178.688 187.392-313.856-0.512-196.608-160.256-356.352-356.864-356.352z m0 489.984c-82.432 0-149.504-67.072-149.504-149.504S421.888 302.08 504.32 302.08s149.504 66.56 149.504 148.992-67.072 149.504-149.504 149.504z" p-id="90874"></path></svg>