<?xml version="1.0" standalone="no"?><!DOCTYPE svg PUBLIC "-//W3C//DTD SVG 1.1//EN" "http://www.w3.org/Graphics/SVG/1.1/DTD/svg11.dtd"><svg t="1747755567955" class="icon" viewBox="0 0 1024 1024" version="1.1" xmlns="http://www.w3.org/2000/svg" p-id="86608" xmlns:xlink="http://www.w3.org/1999/xlink" width="32" height="32"><path d="M799.744 96.768H223.744C171.008 96.768 128 139.776 128 192.512v640c0 52.736 43.008 95.744 95.744 95.744h576.512c52.736 0 95.744-43.52 95.232-95.744v-640c0-52.736-43.008-95.744-95.744-95.744z m-65.024 638.976H287.744c-17.92 0-31.744-14.336-31.744-31.744 0-17.92 14.336-31.744 31.744-31.744h447.488c17.92 0 31.744 14.336 31.744 31.744 0 17.408-14.336 31.744-32.256 31.744zM287.744 481.28H670.72c17.92 0 31.744 14.336 31.744 31.744 0.512 17.408-13.824 31.744-31.744 31.744H287.744c-17.92 0-31.744-14.336-31.744-31.744 0-17.92 14.336-31.744 31.744-31.744zM256 322.048c0-17.92 14.336-31.744 31.744-31.744h156.16c17.92 0 31.744 14.336 31.744 31.744s-14.336 31.744-32.256 31.744H287.744c-17.92 0-31.744-14.336-31.744-31.744z m267.776 0c0-17.92 14.336-31.744 31.744-31.744h30.208c17.92 0 31.744 14.336 31.744 31.744s-14.336 31.744-31.744 31.744h-30.208c-17.92 0-31.744-14.336-31.744-31.744z m135.68 0c0-17.92 14.336-31.744 31.744-31.744 17.92 0 31.744 14.336 31.744 31.744 0.512 17.408-13.824 31.744-31.744 31.744s-31.744-14.336-31.744-31.744z" p-id="86609"></path></svg>