<?xml version="1.0" standalone="no"?><!DOCTYPE svg PUBLIC "-//W3C//DTD SVG 1.1//EN" "http://www.w3.org/Graphics/SVG/1.1/DTD/svg11.dtd"><svg t="1747756440948" class="icon" viewBox="0 0 1024 1024" version="1.1" xmlns="http://www.w3.org/2000/svg" p-id="93376" xmlns:xlink="http://www.w3.org/1999/xlink" width="32" height="32"><path d="M799.744 900.608h-640c-53.248 0-96.256-43.008-96.256-96.256v-578.56c0-53.248 43.008-96.256 96.256-96.256h642.56c53.248 0 96.256 43.008 96.256 96.256v92.672c0 17.408-13.312 32.768-31.232 33.28-17.92 0.512-32.768-13.824-32.768-31.744V225.792c0-17.92-14.336-32.256-32.256-32.256H159.744c-17.408 0-32.256 14.336-32.256 32.256v578.56c0 17.92 14.336 32.256 32.256 32.256h639.488c17.92 0 32.256-14.336 32.256-32.256V706.56c0-17.408 13.312-32.768 31.232-33.28 17.92-0.512 32.768 13.824 32.768 31.744V803.84c0 53.76-43.008 96.768-95.744 96.768z" p-id="93377"></path><path d="M630.272 514.048c0 17.408 13.824 31.232 31.232 31.232 17.408 0 31.232-13.824 31.232-31.232 0-17.408-13.824-31.232-31.232-31.232-17.408 0-31.232 13.824-31.232 31.232z" p-id="93378"></path><path d="M896 640h-320c-35.328 0-64-28.672-64-64v-128c0-35.328 28.672-64 64-64H896c35.328 0 64 28.672 64 64v128c0 35.328-28.672 64-64 64z m-320-169.472V552.96c0 12.8 10.24 22.528 22.528 22.528h274.432c12.8 0 22.528-10.24 22.528-22.528V470.528c0-12.8-10.24-22.528-22.528-22.528h-274.432c-12.288 0-22.528 10.24-22.528 22.528z" p-id="93379"></path></svg>