<?xml version="1.0" standalone="no"?><!DOCTYPE svg PUBLIC "-//W3C//DTD SVG 1.1//EN" "http://www.w3.org/Graphics/SVG/1.1/DTD/svg11.dtd"><svg t="1747757540410" class="icon" viewBox="0 0 1024 1024" version="1.1" xmlns="http://www.w3.org/2000/svg" p-id="95152" xmlns:xlink="http://www.w3.org/1999/xlink" width="32" height="32"><path d="M821.248 85.504c65.024 0 117.248 52.736 117.248 117.248v149.504c0 65.024-52.736 117.248-117.248 117.248h-2.048c-10.752 0-19.456 8.704-19.456 19.456v417.792c0 26.112-30.208 41.472-51.2 25.6l-66.048-49.664-59.904 45.056c-15.36 11.264-35.84 11.264-51.2 0l-59.904-45.056-59.904 45.056c-15.36 11.264-35.84 11.264-51.2 0l-59.904-45.056-66.048 49.664c-20.992 15.872-51.2 0.512-51.2-25.6V488.96c0-10.752-8.704-19.456-19.456-19.456h-2.048c-64 0-115.712-50.688-117.248-114.176V202.752c0-65.024 52.736-117.248 117.248-117.248h619.52z m-95.744 212.992H298.496c-6.144 0-10.752 4.608-10.752 10.752v533.504l27.648-20.992c15.36-11.264 35.84-11.264 51.2 0l59.904 45.056 59.904-45.056c15.36-11.264 35.84-11.264 51.2 0l59.904 45.056 59.904-45.056c15.36-11.264 35.84-11.264 51.2 0l27.648 20.992V309.248c0-5.632-5.12-10.752-10.752-10.752zM543.744 588.8c17.92 0 32.768 14.848 31.744 32.768-0.512 17.408-15.872 31.232-33.28 31.232H416.768c-17.408 0-32.768-13.312-33.28-31.232-0.512-17.92 13.824-32.768 31.744-32.768h128.512z m64.512-138.24c17.92 0 32.768 14.848 31.744 32.768-0.512 17.408-15.872 31.232-33.28 31.232h-189.44c-17.408 0-32.768-13.312-33.28-31.232-0.512-17.92 13.824-32.768 31.744-32.768h192.512z m212.992-301.056H202.752c-29.696 0-53.248 24.064-53.248 53.248v149.504c0 29.696 24.064 53.248 53.248 53.248h2.048c10.752 0 19.456-8.704 19.456-19.456v-76.8c0-41.472 33.28-74.752 74.752-74.752h426.496c41.472 0 74.752 33.28 74.752 74.752v76.288c0 10.752 8.704 19.456 19.456 19.456h2.048c28.672 0 52.224-22.528 53.248-51.2V217.6c-0.512-30.208-24.576-60.928-53.76-68.096z" p-id="95153"></path></svg>