<?xml version="1.0" standalone="no"?><!DOCTYPE svg PUBLIC "-//W3C//DTD SVG 1.1//EN" "http://www.w3.org/Graphics/SVG/1.1/DTD/svg11.dtd"><svg t="1747755968892" class="icon" viewBox="0 0 1024 1024" version="1.1" xmlns="http://www.w3.org/2000/svg" p-id="92202" xmlns:xlink="http://www.w3.org/1999/xlink" width="32" height="32"><path d="M926.208 406.528c-16.384-16.896-38.4-26.112-61.952-26.624-1.024 0-3.072-0.512-6.144-0.512-6.656-0.512-18.432-2.048-32.768-3.072-9.728-21.504-21.504-42.496-35.328-61.952l1.536-3.072c8.192-17.408 11.776-25.6 13.312-29.696v-0.512c25.088-43.008 10.24-98.816-32.768-123.392L694.784 112.64c-13.824-8.192-29.184-12.288-45.568-12.288-31.744 0-61.952 16.896-76.8 42.496-1.024 1.536-9.728 13.312-23.04 32.256-23.552-2.56-47.616-2.56-71.168 0-12.8-17.92-18.432-26.112-21.504-29.696l-0.512-0.512c-16.384-28.16-46.08-45.056-78.336-45.056-15.872 0-31.232 4.096-45.056 11.776l-76.8 44.032c-20.992 12.288-36.352 31.744-42.496 55.808-6.144 22.528-3.072 46.08 7.68 65.536 1.024 2.048 7.68 17.408 17.92 39.424-5.632 7.68-10.752 15.872-15.872 24.576-6.144 10.752-11.776 22.016-16.384 33.28-27.648 2.56-37.888 3.584-41.472 4.096-49.664 0-90.112 40.448-90.112 90.112V558.08c0 24.576 9.728 47.616 26.624 64.512 16.384 16.896 37.888 25.6 60.416 25.6 0 0 18.944 2.048 47.616 4.608 8.704 18.432 18.944 36.352 31.232 53.248l-1.024 2.048c-10.752 23.552-15.36 33.28-17.408 38.912l-0.512 0.512c-11.776 20.48-15.36 45.568-9.216 68.608s21.504 43.008 41.984 55.296l77.312 45.056c13.824 7.68 29.184 12.288 45.568 12.288 31.744 0 61.952-16.896 76.8-42.496 1.536-2.048 13.312-17.92 28.16-38.912 20.992 2.048 41.472 2.048 61.952 0.512 15.36 21.504 22.528 31.744 26.112 35.84v0.512c16.384 28.16 46.08 45.056 78.336 45.056 15.872 0 31.232-4.096 45.056-12.288l77.824-44.544c20.992-11.776 36.352-31.744 42.496-54.784 6.144-23.04 3.584-46.592-7.68-67.072-1.536-3.072-7.68-17.408-17.92-39.424 7.168-9.216 13.824-19.968 20.48-31.232 5.12-9.216 9.728-17.92 13.312-26.112 24.576-2.048 35.328-3.072 39.936-4.096h0.512c49.664 0 90.112-40.448 90.624-90.112V470.016c-1.024-23.552-10.752-46.592-27.648-63.488zM665.6 512c0 84.992-68.608 153.6-153.6 153.6s-153.6-68.608-153.6-153.6 68.608-153.6 153.6-153.6 153.6 68.608 153.6 153.6z" p-id="92203"></path></svg>