<?xml version="1.0" standalone="no"?><!DOCTYPE svg PUBLIC "-//W3C//DTD SVG 1.1//EN" "http://www.w3.org/Graphics/SVG/1.1/DTD/svg11.dtd"><svg t="1747755947813" class="icon" viewBox="0 0 1024 1024" version="1.1" xmlns="http://www.w3.org/2000/svg" p-id="91379" xmlns:xlink="http://www.w3.org/1999/xlink" width="32" height="32"><path d="M835.072 588.8c6.656-15.872 0-35.328-15.872-41.472-15.872-6.656-35.328 0-41.472 15.872-15.872 28.672-79.872 45.056-169.472 45.056-19.456 0-32.256 12.8-32.256 32.256s12.8 31.744 32.256 31.744h9.728c82.944 0 185.344-16.384 217.088-83.456z" p-id="91380"></path><path d="M905.728 438.272l-41.472-15.872c-12.8-182.272-166.4-329.728-352.256-329.728-188.928 0-342.528 150.528-352.256 335.872l-19.456 12.8c-6.144 6.656-12.8 15.872-12.8 25.6v134.656c0 19.456 12.8 32.256 32.256 32.256s32.256-12.8 32.256-32.256V486.4l19.456-12.8c6.656-6.656 12.8-15.872 12.8-28.672 0-160.256 128-288.256 288.256-288.256s288.256 128 288.256 288.256c0 12.8 9.728 25.6 22.528 28.672l41.472 15.872v109.056c0 19.456 12.8 32.256 32.256 32.256s32.256-12.8 32.256-32.256V463.872c-1.024-9.216-10.752-22.016-23.552-25.6z" p-id="91381"></path><path d="M867.84 918.528c-15.36-79.36-57.344-145.92-117.76-192.512-27.136-21.504-61.952-30.72-96.768-29.184-12.288 0.512-24.064 1.024-35.84 1.024h-9.728c-34.304 0-58.368-25.088-57.856-58.88 0.512-31.744 27.648-56.32 58.88-56.32 23.552 0 44.032-1.024 61.44-3.072 49.152-5.632 87.04-45.056 90.624-93.696 0.512-9.216 1.024-18.944 0.512-28.672-5.12-128-110.592-231.936-238.592-235.52-141.312-4.096-254.976 105.984-254.976 246.272 0 86.528 44.544 160.256 112.128 204.8-112.128 38.4-195.072 128-217.6 246.272-3.072 15.872 6.144 35.328 25.6 38.4h653.312c20.48-3.584 29.696-23.04 26.624-38.912z" p-id="91382"></path></svg>