<?xml version="1.0" standalone="no"?><!DOCTYPE svg PUBLIC "-//W3C//DTD SVG 1.1//EN" "http://www.w3.org/Graphics/SVG/1.1/DTD/svg11.dtd"><svg t="1757604122124" class="icon" viewBox="0 0 1024 1024" version="1.1" xmlns="http://www.w3.org/2000/svg" p-id="29245" xmlns:xlink="http://www.w3.org/1999/xlink" width="32" height="32"><path d="M512 74.752c-241.152 0-437.248 196.096-437.248 437.248s196.096 437.248 437.248 437.248 437.248-196.096 437.248-437.248-196.096-437.248-437.248-437.248z m-31.744 629.248V469.504c0-16.896 14.848-32.256 32.256-32.256s32.256 14.848 32.256 32.256v234.496c0 16.896-14.848 32.256-32.256 32.256s-32.256-15.36-32.256-32.256z m31.744-341.504c-23.552 0-42.496-18.944-42.496-42.496s18.944-42.496 42.496-42.496 42.496 18.944 42.496 42.496-18.944 42.496-42.496 42.496z" p-id="29246"></path></svg>