<?xml version="1.0" standalone="no"?><!DOCTYPE svg PUBLIC "-//W3C//DTD SVG 1.1//EN" "http://www.w3.org/Graphics/SVG/1.1/DTD/svg11.dtd"><svg t="1747754294160" class="icon" viewBox="0 0 1024 1024" version="1.1" xmlns="http://www.w3.org/2000/svg" p-id="82983" xmlns:xlink="http://www.w3.org/1999/xlink" width="32" height="32"><path d="M512 938.496c-235.52 0-426.496-190.976-426.496-426.496S276.48 85.504 512 85.504 938.496 276.48 938.496 512 747.52 938.496 512 938.496z m0-64c200.192 0 362.496-162.304 362.496-362.496S712.192 149.504 512 149.504 149.504 311.808 149.504 512s162.304 362.496 362.496 362.496z" p-id="82984"></path><path d="M539.648 301.056c-17.92 0-32.256 14.336-32.256 31.744v178.688l-150.528 150.528-1.024 1.024c-12.288 12.8-11.776 32.768 1.024 45.056 12.8 12.288 32.768 11.776 45.056-1.024l160.256-160.256c6.144-6.144 9.216-14.336 9.216-22.528V332.8c0.512-17.408-13.824-31.744-31.744-31.744z" p-id="82985"></path></svg>