<?xml version="1.0" standalone="no"?><!DOCTYPE svg PUBLIC "-//W3C//DTD SVG 1.1//EN" "http://www.w3.org/Graphics/SVG/1.1/DTD/svg11.dtd"><svg t="1747755484755" class="icon" viewBox="0 0 1024 1024" version="1.1" xmlns="http://www.w3.org/2000/svg" p-id="86131" xmlns:xlink="http://www.w3.org/1999/xlink" width="32" height="32"><path d="M934.912 332.8c-11.776-26.112-41.984-38.4-68.608-27.136l-153.088 65.536L552.96 168.96c-2.56-3.584-5.632-6.144-8.704-8.704-22.528-17.92-55.296-13.824-73.216 8.704L311.296 371.2 158.208 305.664c-9.728-4.096-20.992-5.12-31.232-3.072-28.16 5.632-46.08 33.28-40.448 61.44l89.088 431.104c10.752 52.224 56.832 89.6 110.08 89.6h452.608c53.248 0 99.328-37.376 110.08-89.6l89.6-431.104c2.048-10.752 1.024-21.504-3.072-31.232zM388.096 684.544h257.536c17.92 0 31.744 14.336 31.744 32.256s-14.336 31.744-31.744 31.744H388.096c-17.92 0-31.744-14.336-31.744-31.744 0-17.92 14.336-32.256 31.744-32.256z" p-id="86132"></path></svg>