<?xml version="1.0" standalone="no"?><!DOCTYPE svg PUBLIC "-//W3C//DTD SVG 1.1//EN" "http://www.w3.org/Graphics/SVG/1.1/DTD/svg11.dtd"><svg t="1756613513084" class="icon" viewBox="0 0 1024 1024" version="1.1" xmlns="http://www.w3.org/2000/svg" p-id="68679" xmlns:xlink="http://www.w3.org/1999/xlink" width="32" height="32"><path d="M800.256 352.256H224.256c-8.704 0-16.896 3.072-22.528 9.216-6.144 6.144-9.216 13.824-9.216 22.528v480.256c0 52.736 43.008 96.256 96.256 96.256h448c52.736 0 95.744-43.008 95.744-96.256V384c-0.512-17.408-14.848-31.744-32.256-31.744z m-352.256 448c0 17.92-14.336 32.256-32.256 32.256s-32.256-14.336-32.256-32.256V448c0-17.92 14.336-32.256 32.256-32.256s32.256 14.336 32.256 32.256v352.256z m192 0c0 17.92-14.336 32.256-32.256 32.256s-32.256-14.336-32.256-32.256V448c0-17.92 14.336-32.256 32.256-32.256s32.256 14.336 32.256 32.256v352.256zM597.504 181.248H426.496c-17.92 0-31.744-14.336-31.744-31.744 0-17.92 14.336-31.744 31.744-31.744h170.496c17.92 0 31.744 14.336 31.744 31.744 0.512 17.408-13.824 31.744-31.232 31.744zM862.208 288.256H161.792c-17.92 0-31.744-14.336-31.744-31.744 0-17.92 14.336-31.744 31.744-31.744h699.904c17.92 0 32.256 14.336 32.256 31.744 0 17.408-14.336 31.744-31.744 31.744z" p-id="68680"></path></svg>