<?xml version="1.0" standalone="no"?><!DOCTYPE svg PUBLIC "-//W3C//DTD SVG 1.1//EN" "http://www.w3.org/Graphics/SVG/1.1/DTD/svg11.dtd"><svg t="1756615356375" class="icon" viewBox="0 0 1024 1024" version="1.1" xmlns="http://www.w3.org/2000/svg" p-id="161964" xmlns:xlink="http://www.w3.org/1999/xlink" width="32" height="32"><path d="M839.168 508.416c-10.752 5.632-17.92 16.384-17.92 28.672v294.4c0 17.92-14.848 32.768-32.768 32.768H192.512c-17.92 0-32.768-14.848-32.768-32.768V235.52c0-17.92 14.848-32.768 32.768-32.768h308.224c39.936-24.064 17.408-64-10.24-64h-337.92c-31.232 0-56.832 25.6-56.832 56.832v675.84c0 31.232 25.6 56.832 56.832 56.832h675.84c31.232 0 56.832-25.6 56.832-56.832V537.6c0-24.064-25.088-39.936-46.08-29.184z" p-id="161965"></path><path d="M405.504 484.352l-32.256 125.952c-2.048 10.752 0 23.552 8.704 29.696 6.656 6.656 14.848 8.704 23.552 8.704 5.632 0 11.264-0.512 16.896-2.048l117.76-29.696c6.656-2.048 10.752-4.096 14.848-8.704l299.008-299.008c34.816-34.816 40.96-90.112 12.8-130.048-35.84-50.688-109.056-54.784-151.552-12.8L413.696 469.504c-4.096 4.096-6.144 8.192-8.192 14.848z" p-id="161966"></path></svg>